<svg width="22" height="16" viewBox="0 0 22 16" fill="none" xmlns="http://www.w3.org/2000/svg">
<path d="M18.6511 1.35101C18.6447 1.33947 18.634 1.33058 18.6212 1.32601C17.1959 0.701678 15.6918 0.256316 14.1465 0.00105328C14.1326 -0.00137551 14.1183 0.000420649 14.1055 0.0061881C14.0928 0.0119556 14.0823 0.0214028 14.0754 0.0331952C13.8705 0.388288 13.6844 0.753026 13.518 1.12602C11.8514 0.884551 10.1562 0.884551 8.48958 1.12602C8.32246 0.752104 8.13385 0.387275 7.92463 0.0331952C7.91741 0.0217542 7.90681 0.0126015 7.89417 0.00688385C7.88152 0.00116624 7.86739 -0.000862003 7.85354 0.00105328C6.30559 0.255166 4.79888 0.700562 3.37139 1.32601C3.35887 1.33108 3.34838 1.33984 3.34146 1.35101C0.490544 5.41874 -0.291401 9.38289 0.0902177 13.3006C0.0912983 13.3105 0.0945176 13.32 0.0996707 13.3286C0.104824 13.3372 0.111798 13.3447 0.120149 13.3506C1.78081 14.5231 3.63797 15.418 5.61247 15.997C5.62666 16.0012 5.64187 16.001 5.65596 15.9965C5.67005 15.992 5.68232 15.9834 5.69104 15.972C6.11468 15.4214 6.49009 14.8385 6.81345 14.2292C6.81775 14.2208 6.8202 14.2116 6.82063 14.2023C6.82106 14.193 6.81947 14.1837 6.81596 14.1749C6.81245 14.1662 6.80709 14.1583 6.80022 14.1517C6.79335 14.145 6.78511 14.1398 6.77603 14.1363C6.18285 13.9193 5.60862 13.6578 5.05875 13.3542C5.04903 13.3485 5.04088 13.3407 5.035 13.3314C5.02911 13.3221 5.02566 13.3115 5.02492 13.3007C5.02419 13.2898 5.0262 13.279 5.03078 13.269C5.03537 13.2591 5.04239 13.2503 5.05126 13.2435C5.16725 13.1613 5.28323 13.0756 5.39173 12.9899C5.4013 12.9819 5.41306 12.9766 5.42565 12.9747C5.43823 12.9728 5.45112 12.9744 5.46281 12.9792C9.062 14.547 12.9605 14.547 16.5185 12.9792C16.5299 12.9739 16.5426 12.9718 16.5552 12.973C16.5677 12.9743 16.5797 12.9789 16.5896 12.9864C16.6981 13.0721 16.8141 13.1613 16.9301 13.2435C16.939 13.2503 16.946 13.2591 16.9506 13.269C16.9552 13.279 16.9572 13.2898 16.9564 13.3007C16.9557 13.3115 16.9522 13.3221 16.9464 13.3314C16.9405 13.3407 16.9323 13.3485 16.9226 13.3542C16.3742 13.6594 15.7997 13.9198 15.2053 14.1327C15.1962 14.1362 15.188 14.1414 15.1811 14.1481C15.1743 14.1547 15.1689 14.1627 15.1654 14.1714C15.1619 14.1801 15.1603 14.1894 15.1607 14.1987C15.1612 14.2081 15.1636 14.2172 15.1679 14.2256C15.4969 14.8319 15.8721 15.4144 16.2903 15.9684C16.299 15.9799 16.3113 15.9885 16.3254 15.9929C16.3395 15.9974 16.3547 15.9976 16.3689 15.9934C18.3491 15.417 20.2116 14.522 21.8762 13.3471C21.8847 13.3413 21.8918 13.3339 21.897 13.3252C21.9021 13.3166 21.9053 13.307 21.9061 13.2971C22.3625 8.7722 21.1354 4.84018 18.6511 1.35101ZM7.3522 10.915C6.26721 10.915 5.37676 9.96502 5.37676 8.80077C5.37676 7.63652 6.25224 6.68298 7.3522 6.68298C8.46339 6.68298 9.34635 7.64009 9.32764 8.7972C9.32764 9.96502 8.45216 10.915 7.3522 10.915ZM14.6628 10.915C13.5778 10.915 12.6874 9.96502 12.6874 8.80077C12.6874 7.63652 13.5591 6.68298 14.6628 6.68298C15.774 6.68298 16.657 7.64009 16.6383 8.7972C16.6383 9.96502 15.7703 10.915 14.6628 10.915Z" fill="white"/>
</svg>
