<svg width="1440" height="893" viewBox="0 0 1440 893" fill="none" xmlns="http://www.w3.org/2000/svg">
<path d="M0 0H69.6887C72.0637 0 74.3612 0.845311 76.1698 2.38461L94.066 17.6154C95.8747 19.1547 98.1722 20 100.547 20H619.344C621.71 20 624 19.1611 625.805 17.6323L643.837 2.36767C645.643 0.838927 647.932 0 650.298 0H789.689C792.064 0 794.361 0.845309 796.17 2.38461L814.066 17.6154C815.875 19.1547 818.172 20 820.547 20H1339.34C1341.71 20 1344 19.1611 1345.81 17.6323L1363.84 2.36767C1365.64 0.838926 1367.93 0 1370.3 0H1440V2H1371.03C1368.66 2 1366.38 2.83893 1364.57 4.36767L1346.54 19.6323C1344.73 21.1611 1342.44 22 1340.08 22H819.811C817.436 22 815.139 21.1547 813.33 19.6154L795.434 4.38461C793.625 2.84531 791.328 2 788.953 2H726C723.239 2 721 4.23857 721 6.99999V892.5H719V7C719 4.23858 716.761 2 714 2H651.031C648.665 2 646.375 2.83893 644.57 4.36767L626.538 19.6323C624.732 21.1611 622.443 22 620.077 22H99.8113C97.4363 22 95.1388 21.1547 93.3302 19.6154L75.434 4.38461C73.6253 2.84531 71.3278 2 68.9528 2H0V0Z" fill="url(#paint0_radial_212_2873)"/>
<defs>
<radialGradient id="paint0_radial_212_2873" cx="0" cy="0" r="1" gradientUnits="userSpaceOnUse" gradientTransform="translate(720) rotate(90) scale(893 710.49)">
<stop stop-color="white"/>
<stop offset="1" stop-color="white" stop-opacity="0"/>
</radialGradient>
</defs>
</svg>
